<svg width="37" height="36" viewBox="0 0 37 36" fill="none" xmlns="http://www.w3.org/2000/svg">
<path d="M29.7686 6.0293L20.002 13.2831L21.8081 9.00345L29.7686 6.0293Z" fill="#E2761B" stroke="#E2761B" stroke-width="0.269931" stroke-linecap="round" stroke-linejoin="round"/>
<path d="M7.22168 6.0293L16.9098 13.3518L15.192 9.00345L7.22168 6.0293Z" fill="#E4761B" stroke="#E4761B" stroke-width="0.269931" stroke-linecap="round" stroke-linejoin="round"/>
<path d="M26.2545 22.8438L23.6533 26.8288L29.2188 28.3602L30.8188 22.9321L26.2545 22.8438Z" fill="#E4761B" stroke="#E4761B" stroke-width="0.269931" stroke-linecap="round" stroke-linejoin="round"/>
<path d="M6.19141 22.9321L7.78154 28.3602L13.3471 26.8288L10.7459 22.8438L6.19141 22.9321Z" fill="#E4761B" stroke="#E4761B" stroke-width="0.269931" stroke-linecap="round" stroke-linejoin="round"/>
<path d="M13.0323 16.1108L11.4814 18.4568L17.0077 18.7022L16.8113 12.7637L13.0323 16.1108Z" fill="#E4761B" stroke="#E4761B" stroke-width="0.269931" stroke-linecap="round" stroke-linejoin="round"/>
<path d="M23.9578 16.1111L20.1297 12.6953L20.002 18.7025L25.5184 18.4571L23.9578 16.1111Z" fill="#E4761B" stroke="#E4761B" stroke-width="0.269931" stroke-linecap="round" stroke-linejoin="round"/>
<path d="M13.3467 26.8302L16.6645 25.2106L13.7982 22.9727L13.3467 26.8302Z" fill="#E4761B" stroke="#E4761B" stroke-width="0.269931" stroke-linecap="round" stroke-linejoin="round"/>
<path d="M20.3262 25.2106L23.6536 26.8302L23.1923 22.9727L20.3262 25.2106Z" fill="#E4761B" stroke="#E4761B" stroke-width="0.269931" stroke-linecap="round" stroke-linejoin="round"/>
<path d="M23.6536 26.8305L20.3262 25.2109L20.5911 27.3802L20.5617 28.293L23.6536 26.8305Z" fill="#D7C1B3" stroke="#D7C1B3" stroke-width="0.269931" stroke-linecap="round" stroke-linejoin="round"/>
<path d="M13.3467 26.8305L16.4386 28.293L16.419 27.3802L16.6645 25.2109L13.3467 26.8305Z" fill="#D7C1B3" stroke="#D7C1B3" stroke-width="0.269931" stroke-linecap="round" stroke-linejoin="round"/>
<path d="M16.4878 21.5398L13.7197 20.7251L15.673 19.832L16.4878 21.5398Z" fill="#233447" stroke="#233447" stroke-width="0.269931" stroke-linecap="round" stroke-linejoin="round"/>
<path d="M20.502 21.5398L21.3168 19.832L23.2799 20.7251L20.502 21.5398Z" fill="#233447" stroke="#233447" stroke-width="0.269931" stroke-linecap="round" stroke-linejoin="round"/>
<path d="M13.3473 26.8288L13.8184 22.8438L10.7461 22.9321L13.3473 26.8288Z" fill="#CD6116" stroke="#CD6116" stroke-width="0.269931" stroke-linecap="round" stroke-linejoin="round"/>
<path d="M23.1816 22.8438L23.6527 26.8288L26.2539 22.9321L23.1816 22.8438Z" fill="#CD6116" stroke="#CD6116" stroke-width="0.269931" stroke-linecap="round" stroke-linejoin="round"/>
<path d="M25.5184 18.457L20.002 18.7024L20.5124 21.5392L21.3272 19.8313L23.2904 20.7244L25.5184 18.457Z" fill="#CD6116" stroke="#CD6116" stroke-width="0.269931" stroke-linecap="round" stroke-linejoin="round"/>
<path d="M13.7194 20.7244L15.6825 19.8313L16.4874 21.5392L17.0077 18.7024L11.4814 18.457L13.7194 20.7244Z" fill="#CD6116" stroke="#CD6116" stroke-width="0.269931" stroke-linecap="round" stroke-linejoin="round"/>
<path d="M11.4814 18.457L13.7979 22.9723L13.7194 20.7244L11.4814 18.457Z" fill="#E4751F" stroke="#E4751F" stroke-width="0.269931" stroke-linecap="round" stroke-linejoin="round"/>
<path d="M23.2906 20.7244L23.1924 22.9723L25.5186 18.457L23.2906 20.7244Z" fill="#E4751F" stroke="#E4751F" stroke-width="0.269931" stroke-linecap="round" stroke-linejoin="round"/>
<path d="M17.0085 18.7012L16.4883 21.538L17.1361 24.8851L17.2833 20.4779L17.0085 18.7012Z" fill="#E4751F" stroke="#E4751F" stroke-width="0.269931" stroke-linecap="round" stroke-linejoin="round"/>
<path d="M20.0013 18.7012L19.7363 20.468L19.8541 24.8851L20.5117 21.538L20.0013 18.7012Z" fill="#E4751F" stroke="#E4751F" stroke-width="0.269931" stroke-linecap="round" stroke-linejoin="round"/>
<path d="M20.5121 21.5393L19.8545 24.8865L20.3257 25.2104L23.1918 22.9725L23.29 20.7246L20.5121 21.5393Z" fill="#F6851B" stroke="#F6851B" stroke-width="0.269931" stroke-linecap="round" stroke-linejoin="round"/>
<path d="M13.7197 20.7246L13.7982 22.9725L16.6645 25.2104L17.1356 24.8865L16.4878 21.5393L13.7197 20.7246Z" fill="#F6851B" stroke="#F6851B" stroke-width="0.269931" stroke-linecap="round" stroke-linejoin="round"/>
<path d="M20.5613 28.2907L20.5906 27.3778L20.3453 27.1618H16.6448L16.419 27.3778L16.4386 28.2907L13.3467 26.8281L14.4265 27.7116L16.6153 29.233H20.3748L22.5734 27.7116L23.6531 26.8281L20.5613 28.2907Z" fill="#C0AD9E" stroke="#C0AD9E" stroke-width="0.269931" stroke-linecap="round" stroke-linejoin="round"/>
<path d="M20.3256 25.2087L19.8544 24.8848H17.1355L16.6644 25.2087L16.4189 27.3781L16.6447 27.1621H20.3452L20.5905 27.3781L20.3256 25.2087Z" fill="#161616" stroke="#161616" stroke-width="0.269931" stroke-linecap="round" stroke-linejoin="round"/>
<path d="M30.1811 13.7542L31.0154 9.74944L29.7688 6.0293L20.3262 13.0377L23.958 16.1099L29.0915 17.6118L30.2301 16.2866L29.7394 15.9332L30.5246 15.2168L29.9161 14.7455L30.7012 14.1468L30.1811 13.7542Z" fill="#763D16" stroke="#763D16" stroke-width="0.269931" stroke-linecap="round" stroke-linejoin="round"/>
<path d="M5.98438 9.74944L6.81872 13.7542L6.28868 14.1468L7.07393 14.7455L6.47518 15.2168L7.26042 15.9332L6.76964 16.2866L7.89844 17.6118L13.032 16.1099L16.6639 13.0377L7.22116 6.0293L5.98438 9.74944Z" fill="#763D16" stroke="#763D16" stroke-width="0.269931" stroke-linecap="round" stroke-linejoin="round"/>
<path d="M29.0915 17.6131L23.958 16.1113L25.5186 18.4573L23.1924 22.9725L26.2549 22.9332H30.8191L29.0915 17.6131Z" fill="#F6851B" stroke="#F6851B" stroke-width="0.269931" stroke-linecap="round" stroke-linejoin="round"/>
<path d="M13.033 16.1113L7.89934 17.6131L6.19141 22.9332H10.7459L13.7986 22.9725L11.482 18.4573L13.033 16.1113Z" fill="#F6851B" stroke="#F6851B" stroke-width="0.269931" stroke-linecap="round" stroke-linejoin="round"/>
<path d="M20.0021 18.7018L20.3261 13.0381L21.818 9.00391H15.1924L16.6648 13.0381L17.0084 18.7018L17.1261 20.4883L17.1359 24.8856H19.8549L19.8745 20.4883L20.0021 18.7018Z" fill="#F6851B" stroke="#F6851B" stroke-width="0.269931" stroke-linecap="round" stroke-linejoin="round"/>
</svg>
